<svg xmlns="http://www.w3.org/2000/svg" viewBox="0 0 150 14">
  <path fill="#ffffff" d="M0 0h2.83l5.85 6.09L14.53 0h3.04l-7.22 7.18 7.6 6.82h-3.09l-6.19-5.78-2.84 2.81v2.97H0V0zm24.62 0h11.23v2.24H27.46v3.25h7.6v2.21h-7.6v3.66h8.62v2.24H24.62V0zm17.65 0h6.8c3.87 0 6.02 1.83 6.02 4.67 0 2.16-1.18 3.66-3.18 4.29l3.71 5.04H52.4l-3.32-4.63h-3.97v4.63h-2.84V0zm6.54 6.7c2.18 0 3.32-.87 3.32-2.34 0-1.44-1.14-2.12-3.32-2.12h-3.7v4.46h3.7zM60.1 14l5.96-14h2.96l5.96 14h-2.93l-1.57-3.92H64.6l-1.57 3.92H60.1zm4.84-6.13h5.27L67.6 1.48l-2.66 6.39zm18.3-5.26c1.11-.96 2.76-1.57 4.54-1.57 2.91 0 4.81 1.43 4.81 3.73 0 3.86-6.13 4.29-6.13 6.09 0 .54.41.92 1.15.92 1.76 0 3.32-.99 4.39-2.11l1.35 1.53c-1.42 1.63-3.65 2.79-6.02 2.79-2.67 0-4.63-1.43-4.63-3.74 0-3.93 6.13-4.39 6.13-6.19 0-.48-.37-.82-1.05-.82-1.55 0-3.04.92-4.12 1.94l-1.4-1.58zm16.51-1.13h-4.87V0h12.59v2.24h-4.87v11.76h-2.85V1.48zm12.39 12.52l5.96-14h2.96l5.96 14H124l-1.57-3.92h-5.99l-1.57 3.92h-2.82zm4.84-6.13h5.27l-2.61-6.39l-2.66 6.39zm14.54-1.74c1.11-.96 2.76-1.57 4.54-1.57 2.91 0 4.81 1.43 4.81 3.73 0 3.86-6.13 4.29-6.13 6.09 0 .54.41.92 1.15.92 1.76 0 3.32-.99 4.39-2.11l1.35 1.53c-1.42 1.63-3.65 2.79-6.02 2.79-2.67 0-4.63-1.43-4.63-3.74 0-3.93 6.13-4.39 6.13-6.19 0-.48-.37-.82-1.05-.82-1.55 0-3.04.92-4.12 1.94l-1.4-1.58zm13.19-4.39h11.23v2.24h-8.39v3.25h7.6v2.21h-7.6v3.66h8.62v2.24h-11.46V0z"/>
</svg>
